<svg width="16" height="16" viewBox="0 0 16 16" fill="none" xmlns="http://www.w3.org/2000/svg">
<path d="M0 16V13.4808L13.1808 0.286525C13.2832 0.195175 13.3963 0.124583 13.5201 0.0747498C13.6439 0.0249164 13.7729 0 13.9072 0C14.0416 0 14.1717 0.0211506 14.2977 0.0634506C14.4236 0.105767 14.5398 0.18205 14.6462 0.2923L15.7135 1.36537C15.8237 1.47179 15.899 1.58852 15.9394 1.71557C15.9798 1.84262 16 1.96968 16 2.09673C16 2.23224 15.9772 2.36189 15.9315 2.48568C15.8858 2.60946 15.8131 2.72257 15.7135 2.825L2.51923 16H0ZM13.5038 3.58847L15 2.11155L13.8885 1L12.4115 2.49615L13.5038 3.58847Z" fill="white"/>
</svg>
