<svg width="24" height="24" viewBox="0 0 24 24" fill="none" xmlns="http://www.w3.org/2000/svg">
<mask id="mask0_855_1889" style="mask-type:alpha" maskUnits="userSpaceOnUse" x="0" y="0" width="24" height="24">
<rect width="24" height="24" fill="#D9D9D9"/>
</mask>
<g mask="url(#mask0_855_1889)">
<path d="M20.4999 17.7271L18.9999 16.2271V13.9231H16.6864L15.1864 12.4231H18.9999V11.0001C18.9999 9.04622 18.3166 7.39105 16.9499 6.03455C15.5833 4.67822 13.9333 4.00005 11.9999 4.00005C11.2666 4.00005 10.5612 4.10905 9.88369 4.32705C9.20602 4.54488 8.59219 4.84872 8.04219 5.23855L6.95769 4.1848C7.61152 3.67197 8.37177 3.26297 9.23844 2.9578C10.1051 2.65263 11.0256 2.50005 11.9999 2.50005C13.1691 2.50005 14.2691 2.72055 15.2999 3.16155C16.3308 3.60255 17.232 4.20897 18.0037 4.9808C18.7755 5.75263 19.3845 6.65397 19.8307 7.6848C20.2769 8.71547 20.4999 9.82055 20.4999 11.0001V17.7271ZM11.9999 22.1923V20.6923H18.4922L17.2999 19.5001H15.2692V17.4693L5.72694 7.92705C5.51927 8.36538 5.34619 8.85538 5.20769 9.39705C5.06919 9.93872 4.99994 10.4731 4.99994 11.0001V12.4231H8.69219V19.5001H5.30769C4.80252 19.5001 4.37494 19.3251 4.02494 18.975C3.67494 18.625 3.49994 18.1975 3.49994 17.6923V11.0001C3.49994 10.2309 3.5971 9.49305 3.79144 8.78655C3.9856 8.08022 4.25894 7.4168 4.61144 6.7963L0.992188 3.1923L2.06144 2.13855L21.1537 21.2461V22.1923H11.9999ZM5.30769 18.0001H7.19219V13.9231H4.99994V17.6923C4.99994 17.7821 5.02877 17.8559 5.08644 17.9136C5.1441 17.9712 5.21785 18.0001 5.30769 18.0001Z" fill="#4B4F5B"/>
</g>
</svg>
