<svg width="24" height="16" viewBox="0 0 24 16" fill="none" xmlns="http://www.w3.org/2000/svg">
<path d="M12.0465 12.6593C13.3415 12.6593 14.4414 12.2061 15.3461 11.2996C16.2509 10.3931 16.7033 9.29238 16.7033 7.9974C16.7033 6.70244 16.25 5.60258 15.3435 4.69782C14.437 3.79305 13.3363 3.34067 12.0413 3.34067C10.7464 3.34067 9.64651 3.79391 8.74175 4.70039C7.83699 5.60689 7.3846 6.70762 7.3846 8.0026C7.3846 9.29756 7.83784 10.3974 8.74432 11.3022C9.65082 12.2069 10.7516 12.6593 12.0465 12.6593ZM12.0439 11.0857C11.1868 11.0857 10.4582 10.7857 9.85821 10.1857C9.25821 9.58572 8.95821 8.85715 8.95821 8C8.95821 7.14285 9.25821 6.41428 9.85821 5.81428C10.4582 5.21428 11.1868 4.91428 12.0439 4.91428C12.9011 4.91428 13.6297 5.21428 14.2297 5.81428C14.8297 6.41428 15.1297 7.14285 15.1297 8C15.1297 8.85715 14.8297 9.58572 14.2297 10.1857C13.6297 10.7857 12.9011 11.0857 12.0439 11.0857ZM12.0455 16C9.41736 16 7.0227 15.2751 4.86151 13.8253C2.70034 12.3755 1.10913 10.4337 0.0878906 8C1.10913 5.5663 2.69982 3.62454 4.85996 2.17472C7.02009 0.724909 9.41422 0 12.0424 0C14.6705 0 17.0652 0.724909 19.2264 2.17472C21.3875 3.62454 22.9787 5.5663 24 8C22.9787 10.4337 21.388 12.3755 19.2279 13.8253C17.0678 15.2751 14.6736 16 12.0455 16ZM12.0439 14.2857C14.1963 14.2857 16.1725 13.7191 17.9725 12.5857C19.7725 11.4524 21.1487 9.92382 22.1011 8C21.1487 6.07618 19.7725 4.54761 17.9725 3.41427C16.1725 2.28093 14.1963 1.71426 12.0439 1.71426C9.89155 1.71426 7.91535 2.28093 6.11534 3.41427C4.31533 4.54761 2.93914 6.07618 1.98675 8C2.93914 9.92382 4.31533 11.4524 6.11534 12.5857C7.91535 13.7191 9.89155 14.2857 12.0439 14.2857Z" fill="white"/>
</svg>
