<svg width="24" height="22" viewBox="0 0 24 22" fill="none" xmlns="http://www.w3.org/2000/svg">
<path d="M16.3279 11.5118L15.0397 10.2235C15.2118 9.27353 14.9408 8.41948 14.2269 7.66141C13.5129 6.90332 12.6368 6.6103 11.5985 6.78236L10.3103 5.49415C10.5691 5.37797 10.8346 5.29084 11.1066 5.23276C11.3787 5.17466 11.6765 5.14561 12 5.14561C13.3015 5.14561 14.4062 5.59966 15.3143 6.50775C16.2224 7.41584 16.6765 8.52062 16.6765 9.82207C16.6765 10.1456 16.6474 10.4471 16.5893 10.7265C16.5312 11.0059 16.4441 11.2676 16.3279 11.5118ZM19.9765 15.0809L18.7103 13.8941C19.4368 13.3397 20.082 12.7327 20.646 12.0732C21.21 11.4136 21.6927 10.6633 22.0942 9.82207C21.1383 7.89118 19.7666 6.35699 17.9791 5.21948C16.1916 4.08198 14.1985 3.51323 12 3.51323C11.4456 3.51323 10.9007 3.55146 10.3654 3.62793C9.83014 3.70441 9.3044 3.81911 8.78822 3.97205L7.45149 2.63532C8.17649 2.34708 8.91693 2.13458 9.67281 1.99782C10.4287 1.86105 11.2044 1.79266 12 1.79266C14.6882 1.79266 17.1125 2.53384 19.2728 4.01619C21.4331 5.49856 23.0088 7.43385 24 9.82207C23.575 10.8471 23.0261 11.8037 22.3533 12.6919C21.6805 13.5801 20.8882 14.3765 19.9765 15.0809ZM20.903 21.7162L16.2618 17.1103C15.6736 17.3279 15.0217 17.5059 14.3063 17.6441C13.5908 17.7824 12.8221 17.8515 12 17.8515C9.30442 17.8515 6.88016 17.1103 4.72722 15.628C2.57428 14.1456 0.998537 12.2103 0 9.82207C0.423534 8.80884 0.970597 7.86361 1.64119 6.98639C2.31178 6.10919 3.05002 5.34854 3.85591 4.70442L0.679405 1.49265L1.88824 0.283844L22.1118 20.5074L20.903 21.7162ZM5.06471 5.9132C4.45883 6.39556 3.86949 6.97535 3.29669 7.65258C2.72388 8.32978 2.26027 9.05295 1.90585 9.82207C2.86173 11.753 4.23343 13.2872 6.02093 14.4247C7.80844 15.5622 9.80146 16.1309 12 16.1309C12.5221 16.1309 13.0419 16.0868 13.5596 15.9985C14.0773 15.9103 14.5162 15.8191 14.8765 15.725L13.425 14.2382C13.2294 14.3176 13.003 14.3809 12.7456 14.4279C12.4882 14.475 12.2397 14.4985 12 14.4985C10.6985 14.4985 9.59377 14.0445 8.68568 13.1364C7.77758 12.2283 7.32354 11.1235 7.32354 9.82207C7.32354 9.58972 7.34707 9.3467 7.39414 9.09303C7.44121 8.83934 7.50444 8.60734 7.58384 8.39705L5.06471 5.9132Z" fill="white"/>
</svg>
