<svg width="48" height="49" viewBox="0 0 48 49" fill="none" xmlns="http://www.w3.org/2000/svg">
<path d="M0 8.08936C0 3.67108 3.58172 0.0893555 8 0.0893555H40C44.4183 0.0893555 48 3.67108 48 8.08936V40.0894C48 44.5076 44.4183 48.0894 40 48.0894H8C3.58172 48.0894 0 44.5076 0 40.0894V8.08936Z" fill="#4971FF"/>
<path d="M34.4128 14.0343C32.4709 13.1257 30.3945 12.4654 28.2236 12.0894C27.957 12.5714 27.6455 13.2197 27.4308 13.7354C25.1231 13.3884 22.8367 13.3884 20.5714 13.7354C20.3567 13.2197 20.0382 12.5714 19.7692 12.0894C17.596 12.4654 15.5172 13.1281 13.5752 14.0391C9.6583 19.9581 8.59649 25.7301 9.1274 31.4201C11.7253 33.3602 14.243 34.5387 16.7182 35.3099C17.3294 34.4688 17.8744 33.5747 18.344 32.6324C17.4497 32.2925 16.5932 31.8732 15.7838 31.3864C15.9986 31.2273 16.2086 31.061 16.4115 30.8899C21.3477 33.1987 26.7111 33.1987 31.5884 30.8899C31.7937 31.061 32.0037 31.2273 32.2161 31.3864C31.4043 31.8756 30.5455 32.2949 29.6512 32.6348C30.1207 33.5747 30.6635 34.4712 31.2769 35.3123C33.7545 34.5411 36.2746 33.3626 38.8725 31.4201C39.4954 24.8239 37.8083 19.1049 34.4128 14.0343ZM19.0165 27.9208C17.5347 27.9208 16.3194 26.5374 16.3194 24.8528C16.3194 23.1682 17.5087 21.7825 19.0165 21.7825C20.5243 21.7825 21.7394 23.1658 21.7135 24.8528C21.7158 26.5374 20.5243 27.9208 19.0165 27.9208ZM28.9834 27.9208C27.5016 27.9208 26.2864 26.5374 26.2864 24.8528C26.2864 23.1682 27.4756 21.7825 28.9834 21.7825C30.4912 21.7825 31.7064 23.1658 31.6805 24.8528C31.6805 26.5374 30.4912 27.9208 28.9834 27.9208Z" fill="white"/>
</svg>
