<svg width="63" height="49" viewBox="0 0 63 49" fill="none" xmlns="http://www.w3.org/2000/svg">
<path d="M40.002 4.17801H23.2762V34.2275H40.002V4.17801Z" fill="#181C24"/>
<path d="M24.3896 19.2028C24.3896 13.0976 27.2597 7.67905 31.6638 4.17801C28.4226 1.62956 24.3339 0.0893555 19.8741 0.0893555C9.3092 0.0893555 0.760742 8.63781 0.760742 19.2028C0.760742 29.7677 9.3092 38.3162 19.8741 38.3162C24.3339 38.3162 28.4226 36.776 31.6638 34.2275C27.2535 30.776 24.3896 25.3079 24.3896 19.2028Z" fill="#181C24"/>
<path d="M62.5669 19.2028C62.5669 29.7677 54.0185 38.3162 43.4535 38.3162C38.9937 38.3162 34.9051 36.776 31.6638 34.2275C36.1236 30.7203 38.9381 25.3079 38.9381 19.2028C38.9381 13.0976 36.068 7.67905 31.6638 4.17801C34.8989 1.62956 38.9875 0.0893555 43.4473 0.0893555C54.0185 0.0893555 62.5669 8.69348 62.5669 19.2028Z" fill="#162440"/>
<path d="M11.9102 48.4296V45.244C11.9102 44.0254 11.168 43.2275 9.89373 43.2275C9.25662 43.2275 8.56383 43.4378 8.08754 44.1306C7.71641 43.5491 7.18445 43.2275 6.38651 43.2275C5.85455 43.2275 5.3226 43.3883 4.90198 43.9698V43.3327H3.78857V48.4296H4.90198V45.6151C4.90198 44.712 5.37826 44.2852 6.12053 44.2852C6.8628 44.2852 7.23394 44.7615 7.23394 45.6151V48.4296H8.34734V45.6151C8.34734 44.712 8.8793 44.2852 9.56589 44.2852C10.3082 44.2852 10.6793 44.7615 10.6793 45.6151V48.4296H11.9102ZM28.4257 43.3327H26.6195V41.7924H25.5061V43.3327H24.4979V44.3409H25.5061V46.679C25.5061 47.8481 25.9824 48.5347 27.2566 48.5347C27.7329 48.5347 28.2649 48.3739 28.636 48.1636L28.3143 47.2048C27.9927 47.4151 27.6216 47.4708 27.3556 47.4708C26.8236 47.4708 26.6133 47.1491 26.6133 46.6234V44.3409H28.4195V43.3327H28.4257ZM37.8772 43.2213C37.2401 43.2213 36.8133 43.543 36.5473 43.9636V43.3265H35.4339V48.4234H36.5473V45.5533C36.5473 44.7058 36.9185 44.2234 37.6113 44.2234C37.8216 44.2234 38.0875 44.279 38.304 44.3285L38.6257 43.2646C38.403 43.2213 38.0875 43.2213 37.8772 43.2213ZM23.5948 43.7533C23.0628 43.3821 22.3205 43.2213 21.5226 43.2213C20.2484 43.2213 19.4009 43.8584 19.4009 44.8667C19.4009 45.7141 20.0381 46.1966 21.1515 46.3512L21.6834 46.4069C22.2649 46.512 22.5865 46.6729 22.5865 46.9388C22.5865 47.31 22.1597 47.576 21.4174 47.576C20.6752 47.576 20.0875 47.31 19.7164 47.044L19.1845 47.8914C19.7659 48.3182 20.5638 48.5285 21.3618 48.5285C22.8463 48.5285 23.6999 47.8357 23.6999 46.8832C23.6999 45.9801 23.0071 45.5038 21.9494 45.343L21.4174 45.2873C20.9412 45.2316 20.57 45.1265 20.57 44.811C20.57 44.4399 20.9412 44.2296 21.5288 44.2296C22.1659 44.2296 22.803 44.4955 23.1247 44.6564L23.5948 43.7533ZM53.2174 43.2213C52.5803 43.2213 52.1535 43.543 51.8875 43.9636V43.3265H50.7741V48.4234H51.8875V45.5533C51.8875 44.7058 52.2587 44.2234 52.9515 44.2234C53.1618 44.2234 53.4278 44.279 53.6442 44.3285L53.9659 43.277C53.7494 43.2213 53.4339 43.2213 53.2174 43.2213ZM38.9906 45.8811C38.9906 47.4213 40.0546 48.5347 41.6999 48.5347C42.4422 48.5347 42.9741 48.3739 43.5061 47.9533L42.9741 47.0502C42.5473 47.3718 42.1267 47.5265 41.6442 47.5265C40.7412 47.5265 40.104 46.8894 40.104 45.8811C40.104 44.9223 40.7412 44.2852 41.6442 44.2357C42.1205 44.2357 42.5473 44.3966 42.9741 44.712L43.5061 43.8089C42.9741 43.3821 42.4422 43.2275 41.6999 43.2275C40.0546 43.2213 38.9906 44.3409 38.9906 45.8811ZM49.2896 43.3327H48.1762V43.9698C47.8051 43.4935 47.2731 43.2275 46.5803 43.2275C45.1453 43.2275 44.0319 44.3409 44.0319 45.8811C44.0319 47.4213 45.1453 48.5347 46.5803 48.5347C47.3226 48.5347 47.8546 48.2687 48.1762 47.7924V48.4296H49.2896V43.3327ZM45.2009 45.8811C45.2009 44.978 45.7824 44.2357 46.7412 44.2357C47.6442 44.2357 48.2814 44.9285 48.2814 45.8811C48.2814 46.7842 47.6442 47.5265 46.7412 47.5265C45.7886 47.4708 45.2009 46.778 45.2009 45.8811ZM31.8772 43.2213C30.3927 43.2213 29.3288 44.2852 29.3288 45.8749C29.3288 47.4708 30.3927 48.5285 31.9329 48.5285C32.6752 48.5285 33.4174 48.3182 34.0051 47.8357L33.4731 47.0378C33.0463 47.3595 32.5144 47.5698 31.9886 47.5698C31.2958 47.5698 30.6092 47.2481 30.4484 46.3512H34.2154C34.2154 46.1904 34.2154 46.0852 34.2154 45.9244C34.2649 44.2852 33.3061 43.2213 31.8772 43.2213ZM31.8772 44.1801C32.57 44.1801 33.0463 44.6069 33.1515 45.3986H30.4979C30.603 44.712 31.0793 44.1801 31.8772 44.1801ZM59.5391 41.3162H58.4257V43.9698C58.0546 43.4935 57.5226 43.2275 56.8298 43.2275C55.3948 43.2275 54.2814 44.3409 54.2814 45.8811C54.2814 47.4213 55.3948 48.5347 56.8298 48.5347C57.5721 48.5347 58.104 48.2687 58.4257 47.7924V48.4296H59.5391V41.3162ZM55.4504 45.8811C55.4504 44.978 56.0319 44.2357 56.9906 44.2357C57.8937 44.2357 58.5308 44.9285 58.5308 45.8811C58.5308 46.7842 57.8937 47.5265 56.9906 47.5265C56.0319 47.4708 55.4504 46.778 55.4504 45.8811ZM18.1762 43.3327H17.0628V43.9698C16.6917 43.4935 16.1597 43.2275 15.4669 43.2275C14.0319 43.2275 12.9185 44.3409 12.9185 45.8811C12.9185 47.4213 14.0319 48.5347 15.4669 48.5347C16.2092 48.5347 16.7412 48.2687 17.0628 47.7924V48.4296H18.1762V43.3327ZM14.0381 45.8811C14.0381 44.978 14.6195 44.2357 15.5783 44.2357C16.4814 44.2357 17.1185 44.9285 17.1185 45.8811C17.1185 46.7842 16.4814 47.5265 15.5783 47.5265C14.6195 47.4708 14.0381 46.778 14.0381 45.8811Z" fill="#181C24"/>
</svg>
