<svg width="118" height="33" viewBox="0 0 118 33" fill="none" xmlns="http://www.w3.org/2000/svg">
<path d="M0.567383 0.094563H11.5656C12.5654 0.094563 15.5649 -0.238716 16.8981 4.42719C17.8979 7.4267 19.231 12.0926 21.2307 19.0915H21.8972C23.8969 11.7593 25.5633 6.76015 26.2299 4.42719C27.563 -0.238716 30.8958 0.094563 32.2289 0.094563H42.5605V32.0894H31.8956V13.0924H31.2291L25.5633 32.0894H17.5646L11.8989 13.0924H10.899V32.0894H0.567383M46.8932 0.094563H57.5581V19.0915H58.5579L65.5568 3.42735C66.8899 0.427842 69.8894 0.094563 69.8894 0.094563H79.8878V32.0894H69.2229V13.0924H68.5563L61.5575 28.7566C60.2243 31.7561 56.8915 32.0894 56.8915 32.0894H46.8932M94.2188 22.4243V32.0894H84.2204V15.4254H116.882C115.549 19.4248 110.883 22.4243 105.55 22.4243" fill="#181C24"/>
<path d="M117.548 13.4257C118.881 7.4267 114.882 0.094563 106.217 0.094563H83.5539C84.2204 7.09342 90.2195 13.4257 96.5518 13.4257" fill="#181C24"/>
</svg>
