<svg width="48" height="49" viewBox="0 0 48 49" fill="none" xmlns="http://www.w3.org/2000/svg">
<path d="M0 4.88936C0 2.23839 2.14903 0.0893555 4.8 0.0893555H43.2C45.851 0.0893555 48 2.23839 48 4.88936V43.2894C48 45.9403 45.851 48.0894 43.2 48.0894H4.8C2.14903 48.0894 0 45.9403 0 43.2894V4.88936Z" fill="#4971FF"/>
<path d="M17.365 25.4783L20.2124 33.3595C20.2124 33.3595 20.5684 34.0969 20.9496 34.0969C21.3308 34.0969 27.0006 28.1985 27.0006 28.1985L33.3056 16.0205L17.4666 23.4439L17.365 25.4783Z" fill="#C8DAEA"/>
<path d="M21.1405 27.4995L20.5939 33.3087C20.5939 33.3087 20.3651 35.0887 22.1447 33.3087C23.9243 31.5287 25.6277 30.1561 25.6277 30.1561" fill="#A9C6D8"/>
<path d="M17.4165 25.7595L11.5593 23.8511C11.5593 23.8511 10.8593 23.5671 11.0847 22.9231C11.1311 22.7903 11.2247 22.6773 11.5047 22.4831C12.8025 21.5785 35.5259 13.4111 35.5259 13.4111C35.5259 13.4111 36.1675 13.1949 36.5459 13.3387C36.6395 13.3677 36.7238 13.421 36.79 13.4932C36.8562 13.5654 36.9021 13.654 36.9229 13.7497C36.9638 13.9188 36.9809 14.0929 36.9737 14.2667C36.9719 14.4171 36.9537 14.5565 36.9399 14.7751C36.8015 17.0081 32.6599 33.6737 32.6599 33.6737C32.6599 33.6737 32.4121 34.6489 31.5243 34.6823C31.3061 34.6894 31.0888 34.6524 30.8852 34.5736C30.6816 34.4949 30.496 34.3759 30.3393 34.2239C28.5971 32.7253 22.5755 28.6785 21.2449 27.7885C21.2149 27.7681 21.1896 27.7414 21.1708 27.7104C21.152 27.6793 21.14 27.6446 21.1357 27.6085C21.1171 27.5147 21.2191 27.3985 21.2191 27.3985C21.2191 27.3985 31.7043 18.0785 31.9833 17.1001C32.0049 17.0243 31.9233 16.9869 31.8137 17.0201C31.1173 17.2763 19.0449 24.9001 17.7125 25.7415C17.6166 25.7705 17.5152 25.7767 17.4165 25.7595Z" fill="white"/>
</svg>
