<svg width="99" height="33" viewBox="0 0 99 33" fill="none" xmlns="http://www.w3.org/2000/svg">
<path d="M64.3272 0.0893555C57.3151 0.0893555 51.0484 3.72444 51.0484 10.439C51.0484 18.1402 62.1622 18.6721 62.1622 22.5415C62.1622 24.1707 60.2957 25.6289 57.1065 25.6289C52.5817 25.6289 49.1997 23.5913 49.1997 23.5913L47.7524 30.3682C47.7524 30.3682 51.6484 32.0894 56.8208 32.0894C64.4874 32.0894 70.5208 28.2763 70.5208 21.4461C70.5208 13.3079 59.3605 12.7919 59.3605 9.20128C59.3605 7.925 60.8928 6.52712 64.0722 6.52712C67.6598 6.52712 70.5861 8.00903 70.5861 8.00903L72.0027 1.4645C72.0027 1.4645 68.8175 0.0893555 64.3262 0.0893555H64.3272ZM0.170039 0.583656L0 1.57127C0 1.57127 2.94998 2.11104 5.60734 3.18862C9.02889 4.42338 9.27208 5.14308 9.84844 7.37534L16.127 31.5792H24.544L37.5105 0.583656H29.1133L20.7814 21.6576L17.3816 3.79364C17.0702 1.74922 15.4904 0.582667 13.5577 0.582667H0.171028L0.170039 0.583656ZM40.8875 0.583656L34.3005 31.5792H42.3081L48.8715 0.583656H40.8875ZM85.5485 0.583656C83.6178 0.583656 82.5946 1.61773 81.8442 3.4239L70.1125 31.5792H78.5097L80.134 26.8864H90.364L91.3516 31.5792H98.7612L92.2977 0.583656H85.5485ZM86.6409 8.95809L89.1302 20.589H82.4621L86.6419 8.95809H86.6409Z" fill="#181C24"/>
</svg>
