<svg width="48" height="49" viewBox="0 0 48 49" fill="none" xmlns="http://www.w3.org/2000/svg">
<path d="M0 4.88936C0 2.23839 2.14903 0.0893555 4.8 0.0893555H43.2C45.851 0.0893555 48 2.23839 48 4.88936V43.2894C48 45.9403 45.851 48.0894 43.2 48.0894H4.8C2.14903 48.0894 0 45.9403 0 43.2894V4.88936Z" fill="#4971FF"/>
<path d="M25.3599 33.9894C14.4199 33.9894 8.18 26.4894 7.92 14.0094H13.4C13.58 23.1694 17.6199 27.0494 20.8199 27.8494V14.0094H25.9801V21.9094C29.1401 21.5694 32.4597 17.9694 33.5797 14.0094H38.7398C37.8798 18.8894 34.2798 22.4894 31.7198 23.9694C34.2798 25.1694 38.38 28.3094 39.94 33.9894H34.2598C33.0398 30.1894 30.0001 27.2494 25.9801 26.8494V33.9894H25.3599Z" fill="white"/>
</svg>
