<svg width="128" height="36" viewBox="0 0 128 36" fill="none" xmlns="http://www.w3.org/2000/svg">
<path d="M63.9672 20.7981H48.5446C48.7632 22.1524 49.3748 23.2447 50.336 24.031C51.2971 24.8174 52.5204 25.2543 54.0495 25.2543C55.8409 25.2543 57.37 24.6426 58.6806 23.3757L62.7001 25.2543C61.6952 26.6961 60.4719 27.7446 59.0739 28.4437C57.6759 29.1427 56.0157 29.4923 54.0495 29.4923C51.035 29.4923 48.6321 28.531 46.7097 26.6523C44.8312 24.7738 43.8699 22.4145 43.8699 19.531C43.8699 16.6038 44.8312 14.2009 46.7097 12.2785C48.5884 10.3562 50.9477 9.39506 53.7874 9.39506C56.802 9.39506 59.2486 10.3562 61.1273 12.2785C63.006 14.2009 63.9672 16.7349 63.9672 19.9242V20.7981ZM59.205 17.0407C58.8992 15.9922 58.2438 15.1184 57.3263 14.463C56.4088 13.8076 55.3166 13.4582 54.0933 13.4582C52.7389 13.4582 51.6029 13.8514 50.5544 14.5941C49.9427 15.0747 49.3311 15.9048 48.8069 17.0844H59.205V17.0407Z" fill="white"/>
<path d="M67.2273 9.87564H72.0332V11.8416C73.1253 10.9242 74.0865 10.2688 75.004 9.91932C75.8777 9.56981 76.7952 9.39506 77.7127 9.39506C79.5914 9.39506 81.208 10.0504 82.5186 11.3611C83.6108 12.497 84.1788 14.1572 84.1788 16.3417V28.9679H79.4603V20.6233C79.4603 18.3515 79.373 16.8223 79.1545 16.0795C78.936 15.3368 78.5866 14.7689 78.106 14.3757C77.5816 13.9824 76.97 13.8076 76.2273 13.8076C75.2661 13.8076 74.4361 14.1135 73.7369 14.7689C73.038 15.4242 72.5574 16.298 72.2953 17.4776C72.1642 18.0892 72.0768 19.3562 72.0768 21.366V29.0116H67.271V9.87564H67.2273Z" fill="white"/>
<path d="M97.8097 9.39506C99.601 9.39506 101.305 9.83195 102.878 10.7494C104.45 11.6669 105.717 12.8902 106.591 14.4193C107.465 15.9484 107.946 17.6523 107.946 19.4436C107.946 21.2349 107.509 22.9389 106.591 24.5116C105.717 26.0844 104.494 27.3077 102.921 28.1815C101.349 29.0554 99.6884 29.4923 97.8097 29.4923C95.0573 29.4923 92.7417 28.531 90.7757 26.565C88.8533 24.599 87.8485 22.2397 87.8485 19.4436C87.8485 16.4728 88.9408 13.9824 91.1253 11.9727C93.0913 10.2251 95.3194 9.39506 97.8097 9.39506ZM97.8535 13.8951C96.3679 13.8951 95.1446 14.4193 94.1398 15.4678C93.1349 16.5165 92.6544 17.8271 92.6544 19.4436C92.6544 21.1039 93.1349 22.4582 94.1398 23.463C95.101 24.5116 96.3679 24.9922 97.8535 24.9922C99.3389 24.9922 100.606 24.468 101.611 23.4193C102.615 22.3708 103.096 21.0164 103.096 19.4C103.096 17.7398 102.615 16.429 101.611 15.4242C100.649 14.4193 99.3826 13.8951 97.8535 13.8951Z" fill="white"/>
<path d="M112.402 2.84099H117.208V9.87499H120.048V13.9818H117.208V28.9673H112.402V13.9818H109.956V9.87499H112.402V2.84099Z" fill="white"/>
<path d="M125.248 23.9875C125.99 23.9875 126.646 24.2496 127.214 24.774C127.738 25.2981 128 25.9535 128 26.6962C128 27.4389 127.738 28.0943 127.214 28.6622C126.689 29.2303 126.034 29.4487 125.248 29.4487C124.505 29.4487 123.849 29.1866 123.282 28.6622C122.757 28.1381 122.495 27.4827 122.495 26.6962C122.495 25.9098 122.757 25.2981 123.282 24.774C123.849 24.2496 124.461 23.9875 125.248 23.9875Z" fill="#FFDF54"/>
<path d="M10.5728 35.738V24.2476H0L14.1554 0V11.534H24.5098L10.5728 35.738Z" fill="#FFDF54"/>
</svg>
