<svg width="194" height="43" viewBox="0 0 194 43" fill="none" xmlns="http://www.w3.org/2000/svg">
<g filter="url(#filter0_d_624_1376)">
<path fill-rule="evenodd" clip-rule="evenodd" d="M112.743 10.8595C112.669 10.8739 112.309 10.9343 111.942 10.9937C110.52 11.2237 108.73 11.9777 107.551 12.8431C105.414 14.4108 103.911 16.7381 103.344 19.3557C103.117 20.4066 103.117 22.5764 103.344 23.6273C104.273 27.9194 107.567 31.1446 111.897 32.0024C112.818 32.1847 115.002 32.1602 115.946 31.9568C117.461 31.6308 119.025 30.9229 120.216 30.0246C120.584 29.747 121.6 28.792 122.475 27.9023L124.064 26.2845L122.791 24.9781C122.091 24.2596 121.465 23.6126 121.401 23.5403C121.3 23.4275 121.041 23.6504 119.572 25.1118C117.434 27.2385 116.745 27.6899 115.127 28.0241C110.509 28.978 106.324 24.7936 107.278 20.1758C107.555 18.8329 108.04 17.9276 109.037 16.888C110.049 15.834 111.101 15.2466 112.495 14.9588C114.213 14.6039 116.082 14.9731 117.505 15.9482C118.096 16.3529 119.556 17.8146 126.267 24.7187C130.539 29.1144 131.367 29.9096 132.283 30.4965C133.316 31.1581 134.807 31.7457 136.103 32.0024C137.022 32.1845 139.207 32.1602 140.152 31.9573C144.351 31.0555 147.572 27.8352 148.482 23.6273C148.709 22.5764 148.709 20.4066 148.482 19.3557C147.442 14.5502 143.461 11.1255 138.587 10.844C136.732 10.7369 135.07 11.0785 133.332 11.9244C131.973 12.5863 131.203 13.1969 129.354 15.0791L127.766 16.6949L129.128 18.0921C129.877 18.8605 130.512 19.4995 130.539 19.512C130.566 19.5246 131.309 18.8098 132.189 17.9236C133.878 16.2224 134.49 15.7355 135.433 15.341C139.211 13.7615 143.523 15.9618 144.522 19.9787C144.679 20.6108 144.679 22.3722 144.522 23.0043C144.229 24.1823 143.654 25.2139 142.79 26.1073C140.614 28.3601 137.255 28.8106 134.59 27.207C133.864 26.7703 133.664 26.573 126.876 19.6035C123.133 15.7606 120.665 13.2963 120.234 12.9711C118.878 11.9498 117.09 11.194 115.439 10.9452C114.68 10.8308 113.139 10.7818 112.743 10.8595Z" fill="#4971FF"/>
<path fill-rule="evenodd" clip-rule="evenodd" d="M112.743 10.8595C112.669 10.8739 112.309 10.9343 111.942 10.9937C110.52 11.2237 108.73 11.9777 107.551 12.8431C105.414 14.4108 103.911 16.7381 103.344 19.3557C103.117 20.4066 103.117 22.5764 103.344 23.6273C104.273 27.9194 107.567 31.1446 111.897 32.0024C112.818 32.1847 115.002 32.1602 115.946 31.9568C117.461 31.6308 119.025 30.9229 120.216 30.0246C120.584 29.747 121.6 28.792 122.475 27.9023L124.064 26.2845L122.791 24.9781C122.091 24.2596 121.465 23.6126 121.401 23.5403C121.3 23.4275 121.041 23.6504 119.572 25.1118C117.434 27.2385 116.745 27.6899 115.127 28.0241C110.509 28.978 106.324 24.7936 107.278 20.1758C107.555 18.8329 108.04 17.9276 109.037 16.888C110.049 15.834 111.101 15.2466 112.495 14.9588C114.213 14.6039 116.082 14.9731 117.505 15.9482C118.096 16.3529 119.556 17.8146 126.267 24.7187C130.539 29.1144 131.367 29.9096 132.283 30.4965C133.316 31.1581 134.807 31.7457 136.103 32.0024C137.022 32.1845 139.207 32.1602 140.152 31.9573C144.351 31.0555 147.572 27.8352 148.482 23.6273C148.709 22.5764 148.709 20.4066 148.482 19.3557C147.442 14.5502 143.461 11.1255 138.587 10.844C136.732 10.7369 135.07 11.0785 133.332 11.9244C131.973 12.5863 131.203 13.1969 129.354 15.0791L127.766 16.6949L129.128 18.0921C129.877 18.8605 130.512 19.4995 130.539 19.512C130.566 19.5246 131.309 18.8098 132.189 17.9236C133.878 16.2224 134.49 15.7355 135.433 15.341C139.211 13.7615 143.523 15.9618 144.522 19.9787C144.679 20.6108 144.679 22.3722 144.522 23.0043C144.229 24.1823 143.654 25.2139 142.79 26.1073C140.614 28.3601 137.255 28.8106 134.59 27.207C133.864 26.7703 133.664 26.573 126.876 19.6035C123.133 15.7606 120.665 13.2963 120.234 12.9711C118.878 11.9498 117.09 11.194 115.439 10.9452C114.68 10.8308 113.139 10.7818 112.743 10.8595Z" stroke="#4971FF" stroke-width="1.42121"/>
</g>
<path d="M24.2032 26.0254V30.7182H21.0624C19.9292 30.7182 18.9438 30.5335 18.1062 30.164C17.2933 29.7698 16.6774 29.2156 16.2587 28.5012C14.3865 30.2748 11.7259 31.1617 8.27714 31.1617C5.6659 31.1617 3.63356 30.669 2.18014 29.6836C0.726713 28.6982 0 27.3187 0 25.545C0 24.0423 0.541955 22.8476 1.62587 21.9607C2.70978 21.0493 4.28637 20.4827 6.35566 20.261L15.4827 19.2633C15.1871 17.4403 13.5366 16.5289 10.5312 16.5289C8.95458 16.5289 7.72286 16.7506 6.83603 17.194C5.97383 17.6128 5.54273 18.204 5.54273 18.9677V19.0785H0.147806V18.9677C0.147806 17.5142 0.56659 16.2456 1.40416 15.1617C2.26636 14.0778 3.48576 13.2402 5.06236 12.649C6.63895 12.0577 8.47421 11.7621 10.5681 11.7621C13.8199 11.7621 16.3449 12.4888 18.1432 13.9423C19.9661 15.3957 20.8776 17.4034 20.8776 19.9654V24.5473C20.8776 25.5327 21.4442 26.0254 22.5774 26.0254H24.2032ZM8.64665 26.8753C10.2232 26.8753 11.6151 26.6413 12.8222 26.1732C14.0539 25.6805 14.953 25.0277 15.5196 24.2148V22.9584L7.75982 23.8453C6.94688 23.9438 6.34334 24.1162 5.94919 24.3626C5.55504 24.6089 5.35797 24.9538 5.35797 25.3972C5.35797 26.3826 6.4542 26.8753 8.64665 26.8753Z" fill="white"/>
<path d="M38.5338 11.7621C41.7362 11.7621 44.1627 12.5874 45.8132 14.2379C47.4637 15.8884 48.289 18.3395 48.289 21.5912V30.7182H42.931V21.5912C42.931 19.99 42.4876 18.7706 41.6007 17.933C40.7385 17.0708 39.4699 16.6397 37.7947 16.6397C36.6369 16.6397 35.59 16.9107 34.6539 17.4527C33.7178 17.97 33.0034 18.6844 32.5107 19.5958V30.7182H27.1527V12.2055H32.1412L32.289 13.9792C33.9148 12.5504 35.9964 11.8114 38.5338 11.7621Z" fill="white"/>
<path d="M74.696 12.2055V12.9815L64.9039 32.5658C64.1156 34.1178 63.1425 35.2386 61.9847 35.9284C60.8269 36.6428 59.2749 37 57.3288 37H52.4882V32.3072H57.0701C57.7353 32.3072 58.2526 32.2209 58.6221 32.0485C59.0163 31.9007 59.3488 31.6051 59.6198 31.1617L50.345 12.9815V12.2055H56.0355L62.5759 25.545L69.0055 12.2055H74.696Z" fill="white"/>
<path d="M89.7081 11.7621C91.8513 11.7621 93.7112 12.1563 95.2878 12.9446C96.8891 13.7082 98.1084 14.8045 98.946 16.2333C99.8082 17.662 100.239 19.3372 100.239 21.2587V21.6282C100.239 23.5497 99.8082 25.2371 98.946 26.6905C98.0838 28.1193 96.8644 29.2279 95.2878 30.0162C93.7112 30.7798 91.8513 31.1617 89.7081 31.1617C87.0969 31.1617 84.9414 30.4842 83.2416 29.1293L83.0938 30.7182H78.1054V5H83.4633V13.6467C85.1877 12.3903 87.2693 11.7621 89.7081 11.7621ZM94.6966 21.2587C94.6966 19.8052 94.1916 18.6721 93.1816 17.8591C92.1716 17.0462 90.7551 16.6397 88.9322 16.6397C87.7743 16.6397 86.7028 16.8245 85.7174 17.194C84.7566 17.5635 84.0053 18.0685 83.4633 18.709V24.1778C84.0299 24.8183 84.7936 25.3356 85.7543 25.7298C86.7151 26.0993 87.7743 26.2841 88.9322 26.2841C90.7551 26.2841 92.1716 25.8776 93.1816 25.0647C94.1916 24.2517 94.6966 23.1062 94.6966 21.6282V21.2587Z" fill="white"/>
<path d="M162.507 31.8497C159.033 31.8497 156.323 31.3077 154.377 30.2238C152.456 29.1153 151.495 27.551 151.495 25.531V25.3462H156.631V25.531C156.631 26.2207 157.099 26.7257 158.036 27.046C158.972 27.3416 160.487 27.4894 162.581 27.4894C166.029 27.4894 167.754 26.9967 167.754 26.0113V25.8266C167.754 25.4571 167.532 25.1738 167.089 24.9767C166.645 24.7796 165.845 24.6318 164.687 24.5333L159.92 24.0529C157.186 23.7819 155.19 23.2153 153.934 22.3531C152.678 21.4909 152.049 20.2715 152.049 18.6949V18.3254C152.049 16.4778 152.961 15.0367 154.784 14.0021C156.631 12.9675 159.193 12.4501 162.47 12.4501C165.869 12.4501 168.48 12.9921 170.303 14.076C172.126 15.1599 173.038 16.7242 173.038 18.7688V18.9906H167.902V18.7688C167.902 18.0791 167.458 17.5864 166.571 17.2908C165.709 16.9705 164.293 16.8104 162.322 16.8104C160.721 16.8104 159.489 16.9213 158.627 17.143C157.765 17.3647 157.333 17.6849 157.333 18.1037V18.3254C157.333 18.6949 157.531 18.9782 157.925 19.1753C158.343 19.3724 159.021 19.5202 159.957 19.6187L164.798 20.0991C167.705 20.3947 169.811 20.9736 171.116 21.8358C172.447 22.698 173.112 23.9421 173.112 25.5679V25.9374C173.112 27.8096 172.176 29.2631 170.303 30.2977C168.431 31.3324 165.832 31.8497 162.507 31.8497Z" fill="white"/>
<path d="M185.598 17.6233V24.6441C185.598 25.3093 185.783 25.8266 186.153 26.1961C186.547 26.541 187.101 26.7134 187.816 26.7134H192.176V31.4063H187.113C184.995 31.4063 183.32 30.8397 182.088 29.7065C180.856 28.5487 180.24 26.9844 180.24 25.0136V17.6233H174.07V12.8936H179.021C179.538 12.8936 179.896 12.795 180.093 12.5979C180.29 12.4009 180.388 12.0437 180.388 11.5263V7.979H185.598V12.8936H193.284V17.6233H185.598Z" fill="white"/>
<defs>
<filter id="filter0_d_624_1376" x="92.4629" y="0.111328" width="66.9004" height="42.7246" filterUnits="userSpaceOnUse" color-interpolation-filters="sRGB">
<feFlood flood-opacity="0" result="BackgroundImageFix"/>
<feColorMatrix in="SourceAlpha" type="matrix" values="0 0 0 0 0 0 0 0 0 0 0 0 0 0 0 0 0 0 127 0" result="hardAlpha"/>
<feOffset/>
<feGaussianBlur stdDeviation="5"/>
<feComposite in2="hardAlpha" operator="out"/>
<feColorMatrix type="matrix" values="0 0 0 0 0.196078 0 0 0 0 0.317647 0 0 0 0 0.74902 0 0 0 1 0"/>
<feBlend mode="normal" in2="BackgroundImageFix" result="effect1_dropShadow_624_1376"/>
<feBlend mode="normal" in="SourceGraphic" in2="effect1_dropShadow_624_1376" result="shape"/>
</filter>
</defs>
</svg>
