<svg width="64" height="64" viewBox="0 0 64 64" fill="none" xmlns="http://www.w3.org/2000/svg">
<rect width="64" height="64" rx="32" fill="#0D1019"/>
<g filter="url(#filter0_d_1004_2131)">
<path fill-rule="evenodd" clip-rule="evenodd" d="M19.3812 21.8856C19.3104 21.8994 18.9627 21.9573 18.6086 22.0143C17.2375 22.2349 15.5107 22.9578 14.3729 23.7876C12.3115 25.2908 10.8615 27.5222 10.3152 30.0321C10.0958 31.0397 10.0958 33.1202 10.3152 34.1278C11.2111 38.2432 14.3883 41.3357 18.5657 42.1582C19.4536 42.333 21.5608 42.3095 22.4716 42.1145C23.9326 41.8018 25.4415 41.1231 26.5905 40.2618C26.9455 39.9956 27.9258 39.0799 28.769 38.2268L30.302 36.6757L29.074 35.4231C28.3986 34.7341 27.7951 34.1137 27.733 34.0444C27.636 33.9362 27.3857 34.15 25.9686 35.5512C23.9064 37.5904 23.2419 38.0232 21.681 38.3436C17.2262 39.2583 13.1894 35.2461 14.1096 30.8184C14.3772 29.5308 14.8445 28.6628 15.8067 27.666C16.7824 26.6554 17.798 26.0922 19.1421 25.8162C20.7993 25.4759 22.6024 25.8299 23.9755 26.7649C24.5451 27.1529 25.9538 28.5544 32.4269 35.1743C36.5481 39.3891 37.347 40.1515 38.2309 40.7143C39.2273 41.3486 40.665 41.912 41.9153 42.1582C42.802 42.3328 44.91 42.3095 45.8212 42.1149C49.8722 41.2502 52.9788 38.1625 53.857 34.1278C54.0765 33.1202 54.0765 31.0397 53.857 30.0321C52.854 25.4244 49.0134 22.1407 44.3115 21.8708C42.522 21.768 40.919 22.0956 39.243 22.9066C37.9315 23.5413 37.1886 24.1268 35.4049 25.9315L33.8736 27.4808L35.1871 28.8205C35.9096 29.5573 36.5222 30.1699 36.5485 30.182C36.5746 30.194 37.2908 29.5086 38.1398 28.659C39.7696 27.0278 40.3598 26.5609 41.2698 26.1827C44.9141 24.6681 49.0738 26.7779 50.0372 30.6294C50.1887 31.2355 50.1887 32.9244 50.0372 33.5305C49.7546 34.66 49.1993 35.6491 48.3667 36.5058C46.2673 38.6658 43.0266 39.0978 40.4559 37.5602C39.7559 37.1415 39.5629 36.9523 33.0149 30.2697C29.4044 26.585 27.0236 24.2221 26.6074 23.9103C25.2999 22.9311 23.5744 22.2064 21.9825 21.9678C21.2502 21.8582 19.7636 21.8111 19.3812 21.8856Z" fill="#4971FF"/>
<path fill-rule="evenodd" clip-rule="evenodd" d="M19.3812 21.8856C19.3104 21.8994 18.9627 21.9573 18.6086 22.0143C17.2375 22.2349 15.5107 22.9578 14.3729 23.7876C12.3115 25.2908 10.8615 27.5222 10.3152 30.0321C10.0958 31.0397 10.0958 33.1202 10.3152 34.1278C11.2111 38.2432 14.3883 41.3357 18.5657 42.1582C19.4536 42.333 21.5608 42.3095 22.4716 42.1145C23.9326 41.8018 25.4415 41.1231 26.5905 40.2618C26.9455 39.9956 27.9258 39.0799 28.769 38.2268L30.302 36.6757L29.074 35.4231C28.3986 34.7341 27.7951 34.1137 27.733 34.0444C27.636 33.9362 27.3857 34.15 25.9686 35.5512C23.9064 37.5904 23.2419 38.0232 21.681 38.3436C17.2262 39.2583 13.1894 35.2461 14.1096 30.8184C14.3772 29.5308 14.8445 28.6628 15.8067 27.666C16.7824 26.6554 17.798 26.0922 19.1421 25.8162C20.7993 25.4759 22.6024 25.8299 23.9755 26.7649C24.5451 27.1529 25.9538 28.5544 32.4269 35.1743C36.5481 39.3891 37.347 40.1515 38.2309 40.7143C39.2273 41.3486 40.665 41.912 41.9153 42.1582C42.802 42.3328 44.91 42.3095 45.8212 42.1149C49.8722 41.2502 52.9788 38.1625 53.857 34.1278C54.0765 33.1202 54.0765 31.0397 53.857 30.0321C52.854 25.4244 49.0134 22.1407 44.3115 21.8708C42.522 21.768 40.919 22.0956 39.243 22.9066C37.9315 23.5413 37.1886 24.1268 35.4049 25.9315L33.8736 27.4808L35.1871 28.8205C35.9096 29.5573 36.5222 30.1699 36.5485 30.182C36.5746 30.194 37.2908 29.5086 38.1398 28.659C39.7696 27.0278 40.3598 26.5609 41.2698 26.1827C44.9141 24.6681 49.0738 26.7779 50.0372 30.6294C50.1887 31.2355 50.1887 32.9244 50.0372 33.5305C49.7546 34.66 49.1993 35.6491 48.3667 36.5058C46.2673 38.6658 43.0266 39.0978 40.4559 37.5602C39.7559 37.1415 39.5629 36.9523 33.0149 30.2697C29.4044 26.585 27.0236 24.2221 26.6074 23.9103C25.2999 22.9311 23.5744 22.2064 21.9825 21.9678C21.2502 21.8582 19.7636 21.8111 19.3812 21.8856Z" stroke="#4971FF" stroke-width="0.329894"/>
</g>
<defs>
<filter id="filter0_d_1004_2131" x="7.66438" y="19.3633" width="48.8434" height="25.399" filterUnits="userSpaceOnUse" color-interpolation-filters="sRGB">
<feFlood flood-opacity="0" result="BackgroundImageFix"/>
<feColorMatrix in="SourceAlpha" type="matrix" values="0 0 0 0 0 0 0 0 0 0 0 0 0 0 0 0 0 0 127 0" result="hardAlpha"/>
<feOffset/>
<feGaussianBlur stdDeviation="1.16061"/>
<feComposite in2="hardAlpha" operator="out"/>
<feColorMatrix type="matrix" values="0 0 0 0 0.196078 0 0 0 0 0.317647 0 0 0 0 0.74902 0 0 0 1 0"/>
<feBlend mode="normal" in2="BackgroundImageFix" result="effect1_dropShadow_1004_2131"/>
<feBlend mode="normal" in="SourceGraphic" in2="effect1_dropShadow_1004_2131" result="shape"/>
</filter>
</defs>
</svg>
