<svg width="15" height="16" viewBox="0 0 15 16" fill="none" xmlns="http://www.w3.org/2000/svg">
<path d="M7.17763 11.7144H8.32237V7.3262H7.17763V11.7144ZM7.75 6.02005C7.92464 6.02005 8.07103 5.96097 8.1892 5.84281C8.30736 5.72465 8.36644 5.57825 8.36644 5.40361C8.36644 5.22898 8.30736 5.08258 8.1892 4.96442C8.07103 4.84638 7.92464 4.78736 7.75 4.78736C7.57536 4.78736 7.42897 4.84638 7.3108 4.96442C7.19264 5.08258 7.13356 5.22898 7.13356 5.40361C7.13356 5.57825 7.19264 5.72465 7.3108 5.84281C7.42897 5.96097 7.57536 6.02005 7.75 6.02005ZM7.75134 15.3394C6.74855 15.3394 5.80598 15.1491 4.92364 14.7685C4.04131 14.388 3.27382 13.8715 2.6212 13.2191C1.96857 12.5667 1.45185 11.7996 1.07103 10.9176C0.690344 10.0357 0.5 9.09335 0.5 8.09069C0.5 7.0879 0.690281 6.14534 1.07084 5.263C1.4514 4.38066 1.96787 3.61318 2.62024 2.96055C3.27262 2.30793 4.03978 1.7912 4.92174 1.41039C5.80369 1.0297 6.746 0.839355 7.74866 0.839355C8.75145 0.839355 9.69402 1.02964 10.5764 1.4102C11.4587 1.79076 12.2262 2.30723 12.8788 2.9596C13.5314 3.61197 14.0482 4.37914 14.429 5.26109C14.8097 6.14305 15 7.08536 15 8.08802C15 9.09081 14.8097 10.0334 14.4292 10.9157C14.0486 11.798 13.5321 12.5655 12.8798 13.2182C12.2274 13.8708 11.4602 14.3875 10.5783 14.7683C9.69631 15.149 8.754 15.3394 7.75134 15.3394ZM7.75 14.1946C9.45439 14.1946 10.898 13.6032 12.0809 12.4203C13.2638 11.2374 13.8553 9.79374 13.8553 8.08936C13.8553 6.38497 13.2638 4.94133 12.0809 3.75843C10.898 2.57554 9.45439 1.98409 7.75 1.98409C6.04561 1.98409 4.60197 2.57554 3.41908 3.75843C2.23618 4.94133 1.64474 6.38497 1.64474 8.08936C1.64474 9.79374 2.23618 11.2374 3.41908 12.4203C4.60197 13.6032 6.04561 14.1946 7.75 14.1946Z" fill="white"/>
</svg>
