<svg width="129" height="45" viewBox="0 0 129 45" fill="none" xmlns="http://www.w3.org/2000/svg">
<path d="M44 22.738C44 10.5878 34.1503 0.738037 22 0.738037C9.84974 0.738037 0 10.5878 0 22.738C0 34.8883 9.84974 44.738 22 44.738C34.1503 44.738 44 34.8883 44 22.738Z" fill="white"/>
<path d="M16.432 19.6652C16.519 19.5884 16.5626 19.55 16.5694 19.5125C16.5754 19.4798 16.5663 19.4462 16.5446 19.421C16.5197 19.3921 16.4637 19.3812 16.3516 19.3593C15.0447 19.105 13.6917 18.9558 12.5048 18.9434C12.4478 18.9428 12.4194 18.9425 12.3973 18.9318C12.3776 18.9224 12.3616 18.9076 12.3505 18.8889C12.3379 18.8678 12.3352 18.8397 12.3297 18.7836L11.8897 14.2584C11.8842 14.2023 11.8815 14.1742 11.8899 14.1509C11.8973 14.1304 11.9107 14.1125 11.9282 14.0996C11.9482 14.0849 11.9758 14.0796 12.0311 14.0689C18.6608 12.7862 25.2596 12.7204 31.9886 14.0714C32.0437 14.0824 32.0713 14.0879 32.0911 14.1027C32.1085 14.1157 32.1218 14.1336 32.1291 14.1541C32.1373 14.1774 32.1345 14.2054 32.1289 14.2613L31.6723 18.7842C31.6667 18.8402 31.6638 18.8681 31.6513 18.8892C31.6401 18.9078 31.6241 18.9225 31.6045 18.9319C31.5825 18.9425 31.5541 18.9428 31.4973 18.9434C30.3103 18.9557 28.9571 19.1049 27.6499 19.3593C27.5379 19.3812 27.4818 19.3921 27.4569 19.421C27.4353 19.4462 27.4261 19.4798 27.4321 19.5125C27.4389 19.55 27.4825 19.5884 27.5696 19.6652C30.719 22.4416 32.9464 26.0996 32.9964 31.2386C32.997 31.3003 32.9973 31.3312 32.9854 31.355C32.975 31.3757 32.9579 31.3929 32.9373 31.4036C32.9136 31.4157 32.8828 31.4157 32.8213 31.4157H28.2844C28.2227 31.4157 28.1919 31.4157 28.1686 31.4039C28.1478 31.3934 28.1313 31.3772 28.1206 31.3566C28.1085 31.3334 28.108 31.3018 28.1072 31.2386C28.0483 26.9492 25.8454 24.0896 22.0967 21.6417C22.0621 21.6191 22.0448 21.6078 22.026 21.6033C22.0095 21.5995 21.992 21.5995 21.9755 21.6033C21.9568 21.6078 21.9394 21.6191 21.9048 21.6417C18.1561 24.0896 15.9532 26.9492 15.8944 31.2386C15.8935 31.3018 15.8931 31.3334 15.8809 31.3566C15.8702 31.3772 15.8537 31.3934 15.833 31.4039C15.8096 31.4157 15.7788 31.4157 15.7171 31.4157H11.1803C11.1187 31.4157 11.0879 31.4157 11.0642 31.4036C11.0436 31.3929 11.0265 31.3757 11.0161 31.355C11.0042 31.3312 11.0045 31.3003 11.0051 31.2386C11.0551 26.0996 13.2826 22.4416 16.432 19.6652Z" fill="#0D1019"/>
<path d="M72.392 31.738H57.824V14.938H62.84V26.938H72.392V31.738Z" fill="white"/>
<path d="M92.243 31.738H86.819L85.739 28.762H79.235L78.155 31.738H72.875L79.979 14.938H85.115L92.243 31.738ZM80.627 24.586H84.347L82.475 19.738L80.627 24.586Z" fill="white"/>
<path d="M100.597 26.242L104.725 14.938H110.077L103.189 31.738H97.8607L90.9967 14.938H96.4687L100.597 26.242Z" fill="white"/>
<path d="M128.173 31.738H122.749L121.669 28.762H115.165L114.085 31.738H108.805L115.909 14.938H121.045L128.173 31.738ZM116.557 24.586H120.277L118.405 19.738L116.557 24.586Z" fill="white"/>
</svg>
