<svg width="31" height="25" viewBox="0 0 31 25" fill="none" xmlns="http://www.w3.org/2000/svg">
<path d="M19.743 2.89443H11.457V17.7811H19.743V2.89443Z" fill="#F57A30"/>
<path d="M12.0086 10.3377C12.0086 7.31323 13.4304 4.62886 15.6122 2.89443C14.0065 1.63192 11.981 0.868896 9.77158 0.868896C4.53767 0.868896 0.302734 5.10383 0.302734 10.3377C0.302734 15.5717 4.53767 19.8066 9.77158 19.8066C11.981 19.8066 14.0065 19.0436 15.6122 17.7811C13.4273 16.0711 12.0086 13.3623 12.0086 10.3377Z" fill="#FF0012"/>
<path d="M30.9217 10.3377C30.9217 15.5717 26.6868 19.8066 21.4529 19.8066C19.2435 19.8066 17.218 19.0436 15.6122 17.7811C17.8216 16.0436 19.2159 13.3623 19.2159 10.3377C19.2159 7.31323 17.7941 4.62886 15.6122 2.89443C17.2149 1.63192 19.2404 0.868896 21.4498 0.868896C26.6868 0.868896 30.9217 5.13141 30.9217 10.3377Z" fill="#FBB230"/>
<path d="M5.82623 24.8168V23.2387C5.82623 22.635 5.4585 22.2397 4.82725 22.2397C4.51162 22.2397 4.16841 22.3439 3.93246 22.6871C3.7486 22.399 3.48506 22.2397 3.08976 22.2397C2.82623 22.2397 2.56269 22.3194 2.35432 22.6074V22.2918H1.80273V24.8168H2.35432V23.4225C2.35432 22.9751 2.59027 22.7637 2.95799 22.7637C3.32572 22.7637 3.50958 22.9996 3.50958 23.4225V24.8168H4.06116V23.4225C4.06116 22.9751 4.32469 22.7637 4.66484 22.7637C5.03256 22.7637 5.21642 22.9996 5.21642 23.4225V24.8168H5.82623ZM14.008 22.2918H13.1133V21.5288H12.5617V22.2918H12.0622V22.7913H12.5617V23.9496C12.5617 24.5288 12.7976 24.8689 13.4289 24.8689C13.6648 24.8689 13.9284 24.7892 14.1122 24.685L13.9529 24.2101C13.7935 24.3142 13.6097 24.3418 13.4779 24.3418C13.2144 24.3418 13.1102 24.1825 13.1102 23.922V22.7913H14.005V22.2918H14.008ZM18.6904 22.2366C18.3747 22.2366 18.1633 22.396 18.0315 22.6043V22.2887H17.48V24.8137H18.0315V23.3919C18.0315 22.9721 18.2154 22.733 18.5586 22.733C18.6628 22.733 18.7946 22.7606 18.9018 22.7851L19.0612 22.2581C18.9508 22.2366 18.7946 22.2366 18.6904 22.2366ZM11.6148 22.5002C11.3513 22.3163 10.9835 22.2366 10.5882 22.2366C9.95697 22.2366 9.53716 22.5522 9.53716 23.0517C9.53716 23.4716 9.85278 23.7106 10.4044 23.7872L10.6679 23.8148C10.956 23.8669 11.1153 23.9465 11.1153 24.0783C11.1153 24.2622 10.9039 24.3939 10.5361 24.3939C10.1684 24.3939 9.8773 24.2622 9.69344 24.1304L9.4299 24.5502C9.71795 24.7616 10.1133 24.8658 10.5086 24.8658C11.244 24.8658 11.6669 24.5226 11.6669 24.0507C11.6669 23.6033 11.3237 23.3674 10.7997 23.2877L10.5361 23.2601C10.3002 23.2325 10.1163 23.1804 10.1163 23.0242C10.1163 22.8403 10.3002 22.7361 10.5913 22.7361C10.9069 22.7361 11.2225 22.8679 11.3819 22.9475L11.6148 22.5002ZM26.29 22.2366C25.9743 22.2366 25.7629 22.396 25.6311 22.6043V22.2887H25.0795V24.8137H25.6311V23.3919C25.6311 22.9721 25.815 22.733 26.1582 22.733C26.2624 22.733 26.3942 22.7606 26.5014 22.7851L26.6608 22.2642C26.5535 22.2366 26.3972 22.2366 26.29 22.2366ZM19.242 23.5543C19.242 24.3173 19.769 24.8689 20.5841 24.8689C20.9519 24.8689 21.2154 24.7892 21.4789 24.5808L21.2154 24.1335C21.004 24.2928 20.7956 24.3694 20.5566 24.3694C20.1092 24.3694 19.7935 24.0538 19.7935 23.5543C19.7935 23.0793 20.1092 22.7637 20.5566 22.7392C20.7925 22.7392 21.004 22.8188 21.2154 22.9751L21.4789 22.5277C21.2154 22.3163 20.9519 22.2397 20.5841 22.2397C19.769 22.2366 19.242 22.7913 19.242 23.5543ZM24.3441 22.2918H23.7925V22.6074C23.6087 22.3715 23.3451 22.2397 23.0019 22.2397C22.291 22.2397 21.7394 22.7913 21.7394 23.5543C21.7394 24.3173 22.291 24.8689 23.0019 24.8689C23.3696 24.8689 23.6332 24.7371 23.7925 24.5012V24.8168H24.3441V22.2918ZM22.3186 23.5543C22.3186 23.1069 22.6066 22.7392 23.0816 22.7392C23.529 22.7392 23.8446 23.0824 23.8446 23.5543C23.8446 24.0017 23.529 24.3694 23.0816 24.3694C22.6097 24.3418 22.3186 23.9986 22.3186 23.5543ZM15.718 22.2366C14.9825 22.2366 14.4554 22.7637 14.4554 23.5512C14.4554 24.3418 14.9825 24.8658 15.7455 24.8658C16.1133 24.8658 16.481 24.7616 16.7721 24.5226L16.5086 24.1273C16.2971 24.2867 16.0336 24.3909 15.7731 24.3909C15.4299 24.3909 15.0898 24.2315 15.0101 23.7872H16.8763C16.8763 23.7075 16.8763 23.6554 16.8763 23.5757C16.9008 22.7637 16.4258 22.2366 15.718 22.2366ZM15.718 22.7116C16.0612 22.7116 16.2971 22.923 16.3492 23.3153H15.0346C15.0867 22.9751 15.3227 22.7116 15.718 22.7116ZM29.4217 21.2928H28.8701V22.6074C28.6863 22.3715 28.4228 22.2397 28.0795 22.2397C27.3686 22.2397 26.817 22.7913 26.817 23.5543C26.817 24.3173 27.3686 24.8689 28.0795 24.8689C28.4473 24.8689 28.7108 24.7371 28.8701 24.5012V24.8168H29.4217V21.2928ZM27.3962 23.5543C27.3962 23.1069 27.6842 22.7392 28.1592 22.7392C28.6066 22.7392 28.9222 23.0824 28.9222 23.5543C28.9222 24.0017 28.6066 24.3694 28.1592 24.3694C27.6842 24.3418 27.3962 23.9986 27.3962 23.5543ZM8.93041 22.2918H8.37883V22.6074C8.19497 22.3715 7.93144 22.2397 7.58823 22.2397C6.8773 22.2397 6.32572 22.7913 6.32572 23.5543C6.32572 24.3173 6.8773 24.8689 7.58823 24.8689C7.95595 24.8689 8.21948 24.7371 8.37883 24.5012V24.8168H8.93041V22.2918ZM6.88036 23.5543C6.88036 23.1069 7.16841 22.7392 7.64339 22.7392C8.09078 22.7392 8.40641 23.0824 8.40641 23.5543C8.40641 24.0017 8.09078 24.3694 7.64339 24.3694C7.16841 24.3418 6.88036 23.9986 6.88036 23.5543Z" fill="white"/>
</svg>
