<svg width="39" height="12" viewBox="0 0 39 12" fill="none" xmlns="http://www.w3.org/2000/svg">
<path d="M0.283203 0.717296H3.91557C4.24579 0.717296 5.23643 0.607224 5.67672 2.14823C6.00693 3.13887 6.44722 4.67988 7.10765 6.99139H7.32779C7.98822 4.56981 8.53858 2.91873 8.75873 2.14823C9.19901 0.607224 10.2997 0.717296 10.74 0.717296H14.1522V11.2842H10.6299V5.01009H10.4098L8.53858 11.2842H5.89686L4.02564 5.01009H3.69543V11.2842H0.283203M15.5832 0.717296H19.1055V6.99139H19.4357L21.7472 1.81801C22.1875 0.827368 23.1781 0.717296 23.1781 0.717296H26.4803V11.2842H22.958V5.01009H22.7378L20.4263 10.1835C19.986 11.1741 18.8853 11.2842 18.8853 11.2842H15.5832M31.2134 8.0921V11.2842H27.9112V5.7806H38.6982C38.2579 7.10146 36.7169 8.0921 34.9558 8.0921" fill="white"/>
<path d="M38.9184 5.12017C39.3587 3.13887 38.0378 0.717296 35.1759 0.717296H27.6911C27.9112 3.0288 29.8925 5.12017 31.9839 5.12017" fill="white"/>
</svg>
