<svg width="50" height="17" viewBox="0 0 50 17" fill="none" xmlns="http://www.w3.org/2000/svg">
<path d="M32.2449 0.942383C28.771 0.942383 25.6665 2.74322 25.6665 6.06964C25.6665 9.88484 31.1723 10.1483 31.1723 12.0652C31.1723 12.8723 30.2477 13.5947 28.6677 13.5947C26.4261 13.5947 24.7506 12.5854 24.7506 12.5854L24.0336 15.9426C24.0336 15.9426 25.9638 16.7953 28.5262 16.7953C32.3242 16.7953 35.3132 14.9063 35.3132 11.5226C35.3132 7.49091 29.7844 7.23526 29.7844 5.45646C29.7844 4.82419 30.5435 4.13167 32.1185 4.13167C33.8958 4.13167 35.3455 4.86582 35.3455 4.86582L36.0474 1.62363C36.0474 1.62363 34.4694 0.942383 32.2444 0.942383H32.2449ZM0.461191 1.18726L0.376953 1.67653C0.376953 1.67653 1.83838 1.94393 3.15485 2.47777C4.84989 3.08947 4.97037 3.44602 5.2559 4.55188L8.36634 16.5426H12.5361L18.9598 1.18726H14.7998L10.6721 11.6274L8.98784 2.7775C8.83357 1.76468 8.05094 1.18677 7.09347 1.18677H0.461681L0.461191 1.18726ZM20.6328 1.18726L17.3695 16.5426H21.3365L24.588 1.18726H20.6328ZM42.758 1.18726C41.8015 1.18726 41.2946 1.69955 40.9229 2.59433L35.1109 16.5426H39.2709L40.0756 14.2177H45.1436L45.6329 16.5426H49.3036L46.1016 1.18726H42.758ZM43.2992 5.33598L44.5324 11.098H41.229L43.2997 5.33598H43.2992Z" fill="white"/>
</svg>
